<svg class="marks" width="683" height="322" viewBox="0 0 683 322" version="1.1" xmlns="http://www.w3.org/2000/svg" xmlns:xlink="http://www.w3.org/1999/xlink"><g transform="translate(206,5)"><g class="mark-group role-frame root"><g transform="translate(0,0)"><path class="background" d="M0.5,0.5h400v280h-400Z" style="fill: none; stroke: #ddd;"></path><g><g class="mark-group role-axis"><g transform="translate(0.5,280.5)"><path class="background" d="M0,0h0v0h0Z" style="pointer-events: none; fill: none;"></path><g><g class="mark-rule role-axis-grid" style="pointer-events: none;"><line transform="translate(0,0)" x2="0" y2="-280" style="fill: none; stroke: #ddd; stroke-width: 1; opacity: 1;"></line><line transform="translate(31,0)" x2="0" y2="-280" style="fill: none; stroke: #ddd; stroke-width: 1; opacity: 1;"></line><line transform="translate(62,0)" x2="0" y2="-280" style="fill: none; stroke: #ddd; stroke-width: 1; opacity: 1;"></line><line transform="translate(92,0)" x2="0" y2="-280" style="fill: none; stroke: #ddd; stroke-width: 1; opacity: 1;"></line><line transform="translate(123,0)" x2="0" y2="-280" style="fill: none; stroke: #ddd; stroke-width: 1; opacity: 1;"></line><line transform="translate(154,0)" x2="0" y2="-280" style="fill: none; stroke: #ddd; stroke-width: 1; opacity: 1;"></line><line transform="translate(185,0)" x2="0" y2="-280" style="fill: none; stroke: #ddd; stroke-width: 1; opacity: 1;"></line><line transform="translate(215,0)" x2="0" y2="-280" style="fill: none; stroke: #ddd; stroke-width: 1; opacity: 1;"></line><line transform="translate(246,0)" x2="0" y2="-280" style="fill: none; stroke: #ddd; stroke-width: 1; opacity: 1;"></line><line transform="translate(277,0)" x2="0" y2="-280" style="fill: none; stroke: #ddd; stroke-width: 1; opacity: 1;"></line><line transform="translate(308,0)" x2="0" y2="-280" style="fill: none; stroke: #ddd; stroke-width: 1; opacity: 1;"></line><line transform="translate(338,0)" x2="0" y2="-280" style="fill: none; stroke: #ddd; stroke-width: 1; opacity: 1;"></line><line transform="translate(369,0)" x2="0" y2="-280" style="fill: none; stroke: #ddd; stroke-width: 1; opacity: 1;"></line><line transform="translate(400,0)" x2="0" y2="-280" style="fill: none; stroke: #ddd; stroke-width: 1; opacity: 1;"></line></g></g></g></g><g class="mark-rect role-mark marks"><path d="M0,1h21.53846153846154v18h-21.53846153846154Z" style="fill: #4c78a8;"></path><path d="M23.692307692307693,21h70.76923076923077v18h-70.76923076923077Z" style="fill: #4c78a8;"></path><path d="M7.076923076923077,21h16.615384615384617v18h-16.615384615384617Z" style="fill: #f58518;"></path><path d="M0,21h7.076923076923077v18h-7.076923076923077Z" style="fill: #72b7b2;"></path><path d="M18.153846153846153,41h100.61538461538461v18h-100.61538461538461Z" style="fill: #4c78a8;"></path><path d="M0,41h18.153846153846153v18h-18.153846153846153Z" style="fill: #f58518;"></path><path d="M0,61h9.538461538461538v18h-9.538461538461538Z" style="fill: #4c78a8;"></path><path d="M86.76923076923076,81h119.69230769230772v18h-119.69230769230772Z" style="fill: #4c78a8;"></path><path d="M29.846153846153843,81h56.92307692307692v18h-56.92307692307692Z" style="fill: #f58518;"></path><path d="M17.846153846153847,81h11.999999999999996v18h-11.999999999999996Z" style="fill: #e45756;"></path><path d="M0,81h17.846153846153847v18h-17.846153846153847Z" style="fill: #72b7b2;"></path><path d="M80.92307692307692,101h38.46153846153845v18h-38.46153846153845Z" style="fill: #4c78a8;"></path><path d="M0,101h80.92307692307692v18h-80.92307692307692Z" style="fill: #f58518;"></path><path d="M40.61538461538461,121h74.76923076923076v18h-74.76923076923076Z" style="fill: #4c78a8;"></path><path d="M0,121h40.61538461538461v18h-40.61538461538461Z" style="fill: #f58518;"></path><path d="M63.07692307692307,141h87.38461538461542v18h-87.38461538461542Z" style="fill: #4c78a8;"></path><path d="M20.307692307692307,141h42.76923076923077v18h-42.76923076923077Z" style="fill: #f58518;"></path><path d="M0,141h20.307692307692307v18h-20.307692307692307Z" style="fill: #72b7b2;"></path><path d="M57.230769230769226,161h220v18h-220Z" style="fill: #4c78a8;"></path><path d="M16.307692307692307,161h40.92307692307692v18h-40.92307692307692Z" style="fill: #f58518;"></path><path d="M0,161h16.307692307692307v18h-16.307692307692307Z" style="fill: #72b7b2;"></path><path d="M15.692307692307692,181h18.46153846153846v18h-18.46153846153846Z" style="fill: #4c78a8;"></path><path d="M0,181h15.692307692307692v18h-15.692307692307692Z" style="fill: #f58518;"></path><path d="M15.384615384615385,201h25.538461538461533v18h-25.538461538461533Z" style="fill: #4c78a8;"></path><path d="M0,201h15.384615384615385v18h-15.384615384615385Z" style="fill: #f58518;"></path><path d="M15.692307692307692,221h51.38461538461539v18h-51.38461538461539Z" style="fill: #4c78a8;"></path><path d="M0,221h15.692307692307692v18h-15.692307692307692Z" style="fill: #f58518;"></path><path d="M207.38461538461536,241h184.61538461538464v18h-184.61538461538464Z" style="fill: #4c78a8;"></path><path d="M24.923076923076923,241h182.46153846153842v18h-182.46153846153842Z" style="fill: #f58518;"></path><path d="M17.23076923076923,241h7.692307692307693v18h-7.692307692307693Z" style="fill: #e45756;"></path><path d="M0,241h17.23076923076923v18h-17.23076923076923Z" style="fill: #72b7b2;"></path><path d="M8.615384615384615,261h44.92307692307692v18h-44.92307692307692Z" style="fill: #4c78a8;"></path><path d="M0,261h8.615384615384615v18h-8.615384615384615Z" style="fill: #f58518;"></path></g><g class="mark-group role-legend"><g transform="translate(418,0)"><path class="background" d="M0,0h54v66h-54Z" style="pointer-events: none; fill: none;"></path><g><g class="mark-group role-legend-entry"><g transform="translate(0,16)"><path class="background" d="M0,0h0v0h0Z" style="pointer-events: none; fill: none;"></path><g><g class="mark-group role-scope"><g transform="translate(0,0)"><path class="background" d="M0,0h53.24609375v11h-53.24609375Z" style="pointer-events: none; fill: none; opacity: 1;"></path><g><g class="mark-symbol role-legend-symbol" style="pointer-events: none;"><path transform="translate(6,6)" d="M-5,-5h10v10h-10Z" style="fill: #4c78a8; stroke-width: 1.5; opacity: 1;"></path></g><g class="mark-text role-legend-label" style="pointer-events: none;"><text text-anchor="start" transform="translate(16,9)" style="font-family: sans-serif; font-size: 10px; fill: #000; opacity: 1;">Africa</text></g></g></g><g transform="translate(0,13)"><path class="background" d="M0,0h53.24609375v11h-53.24609375Z" style="pointer-events: none; fill: none; opacity: 1;"></path><g><g class="mark-symbol role-legend-symbol" style="pointer-events: none;"><path transform="translate(6,6)" d="M-5,-5h10v10h-10Z" style="fill: #f58518; stroke-width: 1.5; opacity: 1;"></path></g><g class="mark-text role-legend-label" style="pointer-events: none;"><text text-anchor="start" transform="translate(16,9)" style="font-family: sans-serif; font-size: 10px; fill: #000; opacity: 1;">Asia</text></g></g></g><g transform="translate(0,26)"><path class="background" d="M0,0h53.24609375v11h-53.24609375Z" style="pointer-events: none; fill: none; opacity: 1;"></path><g><g class="mark-symbol role-legend-symbol" style="pointer-events: none;"><path transform="translate(6,6)" d="M-5,-5h10v10h-10Z" style="fill: #e45756; stroke-width: 1.5; opacity: 1;"></path></g><g class="mark-text role-legend-label" style="pointer-events: none;"><text text-anchor="start" transform="translate(16,9)" style="font-family: sans-serif; font-size: 10px; fill: #000; opacity: 1;">Europe</text></g></g></g><g transform="translate(0,39)"><path class="background" d="M0,0h53.24609375v11h-53.24609375Z" style="pointer-events: none; fill: none; opacity: 1;"></path><g><g class="mark-symbol role-legend-symbol" style="pointer-events: none;"><path transform="translate(6,6)" d="M-5,-5h10v10h-10Z" style="fill: #72b7b2; stroke-width: 1.5; opacity: 1;"></path></g><g class="mark-text role-legend-label" style="pointer-events: none;"><text text-anchor="start" transform="translate(16,9)" style="font-family: sans-serif; font-size: 10px; fill: #000; opacity: 1;">Oceania</text></g></g></g></g></g></g></g><g class="mark-text role-legend-title" style="pointer-events: none;"><text text-anchor="start" transform="translate(0,9)" style="font-family: sans-serif; font-size: 11px; font-weight: bold; fill: #000; opacity: 1;">Continent</text></g></g></g></g><g class="mark-group role-axis"><g transform="translate(0.5,280.5)"><path class="background" d="M0,0h0v0h0Z" style="pointer-events: none; fill: none;"></path><g><g class="mark-rule role-axis-tick" style="pointer-events: none;"><line transform="translate(0,0)" x2="0" y2="5" style="fill: none; stroke: #888; stroke-width: 1; opacity: 1;"></line><line transform="translate(31,0)" x2="0" y2="5" style="fill: none; stroke: #888; stroke-width: 1; opacity: 1;"></line><line transform="translate(62,0)" x2="0" y2="5" style="fill: none; stroke: #888; stroke-width: 1; opacity: 1;"></line><line transform="translate(92,0)" x2="0" y2="5" style="fill: none; stroke: #888; stroke-width: 1; opacity: 1;"></line><line transform="translate(123,0)" x2="0" y2="5" style="fill: none; stroke: #888; stroke-width: 1; opacity: 1;"></line><line transform="translate(154,0)" x2="0" y2="5" style="fill: none; stroke: #888; stroke-width: 1; opacity: 1;"></line><line transform="translate(185,0)" x2="0" y2="5" style="fill: none; stroke: #888; stroke-width: 1; opacity: 1;"></line><line transform="translate(215,0)" x2="0" y2="5" style="fill: none; stroke: #888; stroke-width: 1; opacity: 1;"></line><line transform="translate(246,0)" x2="0" y2="5" style="fill: none; stroke: #888; stroke-width: 1; opacity: 1;"></line><line transform="translate(277,0)" x2="0" y2="5" style="fill: none; stroke: #888; stroke-width: 1; opacity: 1;"></line><line transform="translate(308,0)" x2="0" y2="5" style="fill: none; stroke: #888; stroke-width: 1; opacity: 1;"></line><line transform="translate(338,0)" x2="0" y2="5" style="fill: none; stroke: #888; stroke-width: 1; opacity: 1;"></line><line transform="translate(369,0)" x2="0" y2="5" style="fill: none; stroke: #888; stroke-width: 1; opacity: 1;"></line><line transform="translate(400,0)" x2="0" y2="5" style="fill: none; stroke: #888; stroke-width: 1; opacity: 1;"></line></g><g class="mark-text role-axis-label" style="pointer-events: none;"><text text-anchor="start" transform="translate(0,15)" style="font-family: sans-serif; font-size: 10px; fill: #000; opacity: 1;">0</text><text text-anchor="middle" transform="translate(30.76923076923077,15)" style="font-family: sans-serif; font-size: 10px; fill: #000; opacity: 0;">100</text><text text-anchor="middle" transform="translate(61.53846153846154,15)" style="font-family: sans-serif; font-size: 10px; fill: #000; opacity: 1;">200</text><text text-anchor="middle" transform="translate(92.3076923076923,15)" style="font-family: sans-serif; font-size: 10px; fill: #000; opacity: 0;">300</text><text text-anchor="middle" transform="translate(123.07692307692308,15)" style="font-family: sans-serif; font-size: 10px; fill: #000; opacity: 1;">400</text><text text-anchor="middle" transform="translate(153.84615384615387,15)" style="font-family: sans-serif; font-size: 10px; fill: #000; opacity: 0;">500</text><text text-anchor="middle" transform="translate(184.6153846153846,15)" style="font-family: sans-serif; font-size: 10px; fill: #000; opacity: 1;">600</text><text text-anchor="middle" transform="translate(215.3846153846154,15)" style="font-family: sans-serif; font-size: 10px; fill: #000; opacity: 0;">700</text><text text-anchor="middle" transform="translate(246.15384615384616,15)" style="font-family: sans-serif; font-size: 10px; fill: #000; opacity: 1;">800</text><text text-anchor="middle" transform="translate(276.9230769230769,15)" style="font-family: sans-serif; font-size: 10px; fill: #000; opacity: 0;">900</text><text text-anchor="middle" transform="translate(307.69230769230774,15)" style="font-family: sans-serif; font-size: 10px; fill: #000; opacity: 1;">1,000</text><text text-anchor="middle" transform="translate(338.46153846153845,15)" style="font-family: sans-serif; font-size: 10px; fill: #000; opacity: 0;">1,100</text><text text-anchor="middle" transform="translate(369.2307692307692,15)" style="font-family: sans-serif; font-size: 10px; fill: #000; opacity: 1;">1,200</text><text text-anchor="end" transform="translate(400,15)" style="font-family: sans-serif; font-size: 10px; fill: #000; opacity: 0;">1,300</text></g><g class="mark-rule role-axis-domain" style="pointer-events: none;"><line transform="translate(0,0)" x2="400" y2="0" style="fill: none; stroke: #888; stroke-width: 1; opacity: 1;"></line></g><g class="mark-text role-axis-title" style="pointer-events: none;"><text text-anchor="middle" transform="translate(200,30)" style="font-family: sans-serif; font-size: 11px; font-weight: bold; fill: #000; opacity: 1;">value</text></g></g></g></g><g class="mark-group role-axis"><g transform="translate(0.5,0.5)"><path class="background" d="M0,0h0v0h0Z" style="pointer-events: none; fill: none;"></path><g><g class="mark-rule role-axis-tick" style="pointer-events: none;"><line transform="translate(0,9)" x2="-5" y2="0" style="fill: none; stroke: #888; stroke-width: 1; opacity: 1;"></line><line transform="translate(0,29)" x2="-5" y2="0" style="fill: none; stroke: #888; stroke-width: 1; opacity: 1;"></line><line transform="translate(0,49)" x2="-5" y2="0" style="fill: none; stroke: #888; stroke-width: 1; opacity: 1;"></line><line transform="translate(0,69)" x2="-5" y2="0" style="fill: none; stroke: #888; stroke-width: 1; opacity: 1;"></line><line transform="translate(0,89)" x2="-5" y2="0" style="fill: none; stroke: #888; stroke-width: 1; opacity: 1;"></line><line transform="translate(0,109)" x2="-5" y2="0" style="fill: none; stroke: #888; stroke-width: 1; opacity: 1;"></line><line transform="translate(0,129)" x2="-5" y2="0" style="fill: none; stroke: #888; stroke-width: 1; opacity: 1;"></line><line transform="translate(0,149)" x2="-5" y2="0" style="fill: none; stroke: #888; stroke-width: 1; opacity: 1;"></line><line transform="translate(0,169)" x2="-5" y2="0" style="fill: none; stroke: #888; stroke-width: 1; opacity: 1;"></line><line transform="translate(0,189)" x2="-5" y2="0" style="fill: none; stroke: #888; stroke-width: 1; opacity: 1;"></line><line transform="translate(0,209)" x2="-5" y2="0" style="fill: none; stroke: #888; stroke-width: 1; opacity: 1;"></line><line transform="translate(0,229)" x2="-5" y2="0" style="fill: none; stroke: #888; stroke-width: 1; opacity: 1;"></line><line transform="translate(0,249)" x2="-5" y2="0" style="fill: none; stroke: #888; stroke-width: 1; opacity: 1;"></line><line transform="translate(0,269)" x2="-5" y2="0" style="fill: none; stroke: #888; stroke-width: 1; opacity: 1;"></line></g><g class="mark-text role-axis-label" style="pointer-events: none;"><text text-anchor="end" transform="translate(-7,12)" style="font-family: sans-serif; font-size: 10px; fill: #000; opacity: 1;">Action Relating to Debt</text><text text-anchor="end" transform="translate(-7,32)" style="font-family: sans-serif; font-size: 10px; fill: #000; opacity: 1;">Agriculture, Forestry and Fishing</text><text text-anchor="end" transform="translate(-7,52)" style="font-family: sans-serif; font-size: 10px; fill: #000; opacity: 1;">Communications</text><text text-anchor="end" transform="translate(-7,72)" style="font-family: sans-serif; font-size: 10px; fill: #000; opacity: 1;">Developmental Food Aid/Food Securit…</text><text text-anchor="end" transform="translate(-7,92)" style="font-family: sans-serif; font-size: 10px; fill: #000; opacity: 1;">Education</text><text text-anchor="end" transform="translate(-7,112)" style="font-family: sans-serif; font-size: 10px; fill: #000; opacity: 1;">Emergency Response</text><text text-anchor="end" transform="translate(-7,132)" style="font-family: sans-serif; font-size: 10px; fill: #000; opacity: 1;">Energy Generation and Supply</text><text text-anchor="end" transform="translate(-7,152)" style="font-family: sans-serif; font-size: 10px; fill: #000; opacity: 1;">Government and Civil Society</text><text text-anchor="end" transform="translate(-7,172)" style="font-family: sans-serif; font-size: 10px; fill: #000; opacity: 1;">Health</text><text text-anchor="end" transform="translate(-7,192)" style="font-family: sans-serif; font-size: 10px; fill: #000; opacity: 1;">Industry, Mining, Construction</text><text text-anchor="end" transform="translate(-7,212)" style="font-family: sans-serif; font-size: 10px; fill: #000; opacity: 1;">Other Multisector</text><text text-anchor="end" transform="translate(-7,232)" style="font-family: sans-serif; font-size: 10px; fill: #000; opacity: 1;">Other Social infrastructure and services</text><text text-anchor="end" transform="translate(-7,252)" style="font-family: sans-serif; font-size: 10px; fill: #000; opacity: 1;">Transport and Storage</text><text text-anchor="end" transform="translate(-7,272)" style="font-family: sans-serif; font-size: 10px; fill: #000; opacity: 1;">Water Supply and Sanitation</text></g><g class="mark-rule role-axis-domain" style="pointer-events: none;"><line transform="translate(0,0)" x2="0" y2="280" style="fill: none; stroke: #888; stroke-width: 1; opacity: 1;"></line></g><g class="mark-text role-axis-title" style="pointer-events: none;"><text text-anchor="middle" transform="translate(-189.9794921875,140) rotate(-90) translate(0,-2)" style="font-family: sans-serif; font-size: 11px; font-weight: bold; fill: #000; opacity: 1;">crs_sector_name</text></g></g></g></g></g></g></g></g></svg>